<?xml version="1.0" standalone="no"?>
<!DOCTYPE svg PUBLIC "-//W3C//DTD SVG 20010904//EN"
 "http://www.w3.org/TR/2001/REC-SVG-20010904/DTD/svg10.dtd">
<svg version="1.0" xmlns="http://www.w3.org/2000/svg"
 width="250.000000pt" height="260.000000pt" viewBox="0 0 250.000000 260.000000"
 preserveAspectRatio="xMidYMid meet" fill="red">
<metadata>
Created by potrace 1.16, written by Peter Selinger 2001-2019
</metadata>
<g transform="translate(0.000000,260.000000) scale(0.100000,-0.100000)"
fill="yellow" stroke="none">
<path  fill="#1C3481" d="M1125 2576 c-26 -14 -84 -32 -129 -41 -373 -76 -692 -321 -866 -665
-91 -181 -130 -350 -130 -565 0 -337 114 -622 344 -863 102 -107 205 -184 332
-249 99 -51 251 -105 332 -118 65 -10 52 12 -15 25 -95 20 -217 65 -317 118
-529 278 -780 891 -600 1464 134 426 506 755 947 837 71 13 43 -7 -34 -25
-449 -103 -796 -435 -914 -874 -13 -52 -27 -124 -30 -160 -5 -64 -4 -64 10 19
20 111 65 241 131 379 60 124 78 142 168 162 43 10 61 22 116 79 75 77 166
151 186 151 24 0 84 -33 84 -47 0 -27 -30 -71 -71 -107 -35 -29 -41 -40 -36
-63 8 -40 -12 -79 -83 -163 -57 -67 -149 -234 -137 -246 2 -3 12 14 21 38 33
83 111 194 191 273 136 134 303 218 491 246 l84 12 -38 17 c-45 21 -66 43 -87
93 -21 50 -19 93 6 144 49 102 181 130 269 57 42 -36 61 -77 62 -133 0 -77
-51 -152 -117 -170 -26 -7 -21 -9 38 -15 447 -49 787 -428 787 -876 0 -396
-264 -742 -650 -850 -44 -12 -121 -23 -185 -27 -250 -13 -483 76 -661 252
-159 156 -245 348 -263 588 -8 99 -8 100 -10 30 -1 -78 -15 -94 -44 -52 -14
18 -13 26 4 65 18 40 49 174 49 211 0 8 -17 -7 -39 -34 -52 -65 -77 -87 -86
-73 -4 6 18 43 49 83 30 40 66 97 79 127 27 60 41 120 28 120 -4 0 -38 -31
-74 -69 -64 -66 -127 -172 -127 -213 0 -10 -4 -18 -9 -18 -5 0 -12 30 -15 68
-4 37 -10 82 -13 101 l-6 34 -14 -27 c-46 -88 -68 -292 -38 -350 19 -37 19
-39 -5 -31 -17 5 -23 0 -35 -29 -18 -42 -21 -90 -4 -66 7 11 8 3 4 -30 -5 -35
-4 -42 5 -30 9 12 10 9 5 -13 -16 -77 104 -356 220 -509 112 -148 269 -276
440 -358 80 -38 209 -82 277 -95 l37 -7 -49 148 c-27 81 -49 149 -47 150 2 2
30 -5 63 -16 94 -29 217 -43 310 -36 87 6 200 27 248 46 16 6 31 8 34 6 3 -3
-17 -67 -43 -141 -26 -75 -45 -138 -42 -142 16 -16 250 73 351 134 341 204
553 539 596 938 29 262 -45 555 -196 782 -179 269 -466 461 -782 523 -68 14
-100 36 -35 25 107 -18 239 -61 339 -109 360 -176 610 -509 679 -903 19 -111
19 -307 0 -419 -65 -372 -304 -699 -641 -876 -89 -47 -218 -97 -291 -113 -18
-3 -35 -11 -38 -16 -21 -33 193 34 329 104 289 148 517 413 617 719 42 130 59
242 59 393 0 215 -40 386 -134 572 -169 335 -490 581 -858 657 -42 9 -86 16
-97 16 -10 0 -39 11 -62 25 -61 35 -156 35 -224 1z m784 -372 c34 -25 86 -74
116 -108 49 -56 61 -63 111 -74 79 -16 114 -47 158 -138 58 -118 112 -261 131
-344 15 -65 33 -413 19 -355 -3 11 -7 31 -10 44 -4 17 -10 22 -25 18 -18 -5
-20 -2 -14 16 30 99 21 218 -27 343 l-23 59 -12 -99 c-14 -110 -18 -128 -26
-106 -40 119 -91 197 -168 259 l-42 34 6 -42 c7 -58 46 -134 107 -209 33 -41
49 -70 45 -80 -5 -12 -11 -10 -35 13 -16 16 -42 46 -56 67 -15 21 -28 37 -29
36 -8 -9 20 -151 41 -207 l24 -66 -26 -22 c-14 -13 -23 -23 -20 -23 2 0 11 -3
20 -6 11 -4 16 -1 16 10 0 21 10 20 26 -1 20 -29 38 -1 37 58 -1 38 -7 57 -24
75 -23 25 -10 34 21 14 12 -7 16 -4 20 18 l6 27 15 -29 c10 -18 19 -25 23 -17
4 6 17 11 29 11 20 -1 20 -2 6 -13 -21 -16 -30 -140 -12 -158 10 -10 14 -9 19
4 8 23 24 22 24 -2 0 -14 6 -17 28 -13 27 5 27 5 8 -16 -10 -12 -22 -43 -27
-69 -6 -33 -17 -54 -34 -67 -30 -22 -55 -66 -55 -98 0 -19 8 -14 60 37 33 33
60 56 60 53 0 -4 -14 -46 -31 -95 -37 -105 -97 -226 -150 -304 -38 -57 -39
-57 -101 -64 -61 -7 -64 -9 -150 -90 -49 -45 -112 -95 -142 -111 -47 -24 -58
-27 -80 -16 -22 10 -26 18 -26 51 0 35 5 42 55 80 54 41 55 42 55 94 1 49 4
56 69 134 142 174 211 336 219 519 6 133 -9 243 -47 356 -40 118 -85 203 -139
266 -87 99 -94 112 -89 163 3 41 1 47 -23 61 -33 19 -76 74 -85 109 -6 23 -2
28 32 42 21 9 43 16 50 16 6 1 39 -20 72 -45z m-1669 -834 c30 19 45 11 23
-12 -22 -24 -34 -112 -19 -136 10 -17 36 -15 36 3 0 8 5 15 10 15 6 0 10 -9
10 -20 0 -18 3 -19 21 -10 11 7 24 8 27 4 4 -4 1 -9 -5 -11 -8 -3 -13 -24 -13
-58 0 -34 -5 -57 -15 -65 -21 -17 -19 -74 5 -118 40 -77 41 -75 36 83 -5 147
-5 148 8 85 33 -153 116 -310 230 -436 43 -48 46 -56 46 -107 0 -55 0 -55 56
-97 53 -40 55 -43 52 -83 -7 -93 -94 -64 -251 85 -57 54 -90 78 -107 78 -49 1
-100 18 -118 40 -40 50 -114 191 -151 290 -58 158 -59 156 8 87 60 -62 61 -62
61 -32 0 33 -26 78 -59 101 -14 10 -21 26 -21 49 0 22 -9 45 -27 66 l-27 32
27 -5 c22 -4 27 -1 27 13 0 23 16 25 24 4 5 -13 10 -14 27 -5 15 9 18 15 10
23 -6 6 -11 36 -11 67 0 31 -5 61 -12 68 -9 9 -7 12 9 12 12 0 23 -6 26 -12 3
-7 10 0 17 17 l13 30 6 -27 c5 -21 9 -25 21 -18z"/>
<path fill="#009847" d="M1960 1984 c0 -13 102 -132 165 -194 l67 -65 -7 35 c-12 60 -41 116
-71 137 -47 33 -154 93 -154 87z"/>
<path fill="#009847" d="M2260 1201 c-5 -11 -10 -30 -10 -42 0 -13 -9 -42 -21 -65 -15 -31
-19 -58 -17 -101 l3 -58 53 53 c40 40 52 58 46 70 -5 9 -7 45 -6 79 2 53 0 64
-17 73 -16 8 -22 7 -31 -9z"/>
<path fill="#009847" d="M2143 685 c-74 -35 -130 -70 -164 -102 -29 -26 -49 -42 -45 -35 8 13
26 175 21 180 -7 8 -54 -96 -60 -134 -3 -21 -9 -52 -12 -69 -5 -29 -5 -30 14
-12 11 9 23 17 28 17 5 0 20 11 34 24 15 13 70 38 123 55 83 28 102 39 137 76
35 38 49 57 39 54 -2 0 -53 -24 -115 -54z"/>
<path  fill="#009847" d="M196 1205 c-13 -13 -15 -28 -10 -71 5 -36 3 -58 -5 -68 -10 -12 -8
-22 15 -51 15 -20 40 -45 55 -56 l29 -20 0 68 c-1 43 -6 75 -15 87 -8 10 -17
38 -21 62 -8 54 -25 71 -48 49z"/>
<path fill="#1C3481" d="M1175 2511 c-66 -27 -106 -113 -86 -183 42 -140 222 -153 290 -21 29
58 1 151 -58 190 -35 24 -105 30 -146 14z m123 -35 c56 -30 77 -107 47 -166
-22 -42 -53 -60 -106 -60 -86 0 -143 77 -116 158 22 67 113 103 175 68z"/>
<path fill="#1C3481" d="M1096 1884 c-159 -38 -312 -164 -384 -314 -49 -104 -65 -175 -61
-285 l3 -84 -96 -88 -96 -88 132 -3 131 -3 28 -44 c41 -64 133 -145 214 -188
167 -88 369 -90 541 -5 72 36 198 147 227 202 11 20 24 36 30 36 5 1 -10 12
-35 25 l-45 24 -428 1 c-411 0 -429 -1 -468 -20 -35 -18 -55 -20 -171 -18
l-132 3 302 278 c267 245 305 277 334 277 39 0 81 -26 126 -77 25 -28 32 -32
27 -17 -8 31 36 64 86 64 37 0 55 -15 340 -271 165 -149 301 -270 303 -268 2
2 -37 40 -88 85 l-91 81 3 100 c7 184 -43 309 -173 438 -89 89 -167 134 -276
160 -79 18 -204 18 -283 -1z"/>
<path fill="#1C3481" d="M985 349 c61 -195 98 -298 109 -302 48 -19 178 -28 244 -18 116 18
108 9 169 180 30 84 52 155 50 157 -2 3 -33 -3 -68 -11 -102 -25 -279 -30
-379 -11 -47 9 -96 19 -109 23 -21 5 -23 4 -16 -18z m499 -136 c-25 -71 -52
-133 -61 -140 -8 -6 -40 -15 -70 -19 -60 -7 -224 -1 -241 10 -12 7 -96 255
-89 262 2 2 46 -3 98 -12 104 -18 239 -14 344 10 33 8 61 14 62 15 1 1 -18
-56 -43 -126z"/>
</g>
</svg>
